<svg width="128" height="128" viewBox="0 0 128 128" fill="none" xmlns="http://www.w3.org/2000/svg">
<defs>
  <linearGradient id="rim" x1="21" y1="11" x2="108" y2="113" gradientUnits="userSpaceOnUse">
    <stop stop-color="#FFF7E8"/>
    <stop offset=".45" stop-color="#C9D0DA"/>
    <stop offset="1" stop-color="#7D879A"/>
  </linearGradient>
  <linearGradient id="main" x1="40" y1="17" x2="92" y2="98" gradientUnits="userSpaceOnUse">
    <stop stop-color="#F6E9D2"/>
    <stop offset=".55" stop-color="#C9D0DA"/>
    <stop offset="1" stop-color="#7D879A"/>
  </linearGradient>
  <linearGradient id="laurel" x1="26" y1="22" x2="98" y2="96" gradientUnits="userSpaceOnUse">
    <stop stop-color="#FFF4C8"/>
    <stop offset=".5" stop-color="#E6B04A"/>
    <stop offset="1" stop-color="#B86B18"/>
  </linearGradient>
  <filter id="shadow" x="-25%" y="-25%" width="150%" height="150%"><feDropShadow dx="0" dy="8" stdDeviation="6" flood-color="#7A2A10" flood-opacity=".18"/></filter>
</defs>
<g filter="url(#shadow)">
  <path d="M64 7L109 32.5V83.5L64 109L19 83.5V32.5L64 7Z" fill="url(#rim)"/>
  <path d="M64 15L101 36V79L64 100L27 79V36L64 15Z" fill="url(#main)"/>
  <path d="M64 20L95.5 38V76L64 94L32.5 76V38L64 20Z" stroke="#FFF4D0" stroke-opacity=".7" stroke-width="2.5"/>
  
  
  <path d="M32 101C35 120 45 137 61 149" stroke="url(#laurel)" stroke-width="6.5" stroke-linecap="round"/>
  <path d="M188 101C185 120 175 137 159 149" stroke="url(#laurel)" stroke-width="6.5" stroke-linecap="round"/>

</g>
  <path d="M100 52L102.2 56.8L107 58.3L102.2 59.8L100 64.6L97.8 59.8L93 58.3L97.8 56.8L100 52Z" fill="#FFF7D6" opacity=".95"/>
  <path d="M120 52L122.2 56.8L127 58.3L122.2 59.8L120 64.6L117.8 59.8L113 58.3L117.8 56.8L120 52Z" fill="#FFF7D6" opacity=".95"/>
<title>Cấp độ 11–20</title>
</svg>