<svg width="220" height="220" viewBox="0 0 220 220" fill="none" xmlns="http://www.w3.org/2000/svg">
<defs>
  <linearGradient id="rim" x1="28" y1="18" x2="188" y2="200" gradientUnits="userSpaceOnUse">
    <stop stop-color="#FFF4D0"/>
    <stop offset=".42" stop-color="#49B5FF"/>
    <stop offset="1" stop-color="#1D78C9"/>
  </linearGradient>
  <linearGradient id="accent" x1="148" y1="38" x2="190" y2="87" gradientUnits="userSpaceOnUse">
    <stop stop-color="#49B5FF"/>
    <stop offset="1" stop-color="#1D78C9"/>
  </linearGradient>
  <linearGradient id="gold" x1="82" y1="15" x2="136" y2="44" gradientUnits="userSpaceOnUse">
    <stop stop-color="#FFF4C6"/><stop offset=".5" stop-color="#F2B038"/><stop offset="1" stop-color="#B76418"/>
  </linearGradient>
  <filter id="shadow" x="-25%" y="-25%" width="150%" height="150%"><feDropShadow dx="0" dy="8" stdDeviation="7" flood-color="#7A2A10" flood-opacity=".18"/></filter>
</defs>
<g filter="url(#shadow)">
  <circle cx="110" cy="104" r="72" stroke="url(#rim)" stroke-width="10"/>
  <circle cx="110" cy="104" r="81" stroke="#49B5FF" stroke-opacity=".22" stroke-width="3"/>
  <circle cx="110" cy="104" r="65" stroke="#FFF1CF" stroke-width="3" opacity=".85"/>
  <path d="M48 47C67 32 93 27 118 31" stroke="#FFFFFF" stroke-opacity=".24" stroke-width="6" stroke-linecap="round"/>
  
  <path d="M52 162C41 153 34 139 30 123" stroke="#1D78C9" stroke-width="6" stroke-linecap="round"/>
  <path d="M168 162C179 153 186 139 190 123" stroke="#1D78C9" stroke-width="6" stroke-linecap="round"/>

  
</g>

  <g filter="url(#shadow)">
    <circle cx="172" cy="63" r="22" fill="url(#accent)" stroke="#FFF4CF" stroke-width="3"/>
    <circle cx="172" cy="63" r="10.5" stroke="#FFF7D7" stroke-width="2.6"/>
    <path d="M177 58L168 62L164 72L173 68L177 58Z" fill="#FFF0B3" stroke="#FFF7D7" stroke-width="1.6" stroke-linejoin="round"/>
  </g>

<title>Khung avatar - Nhà thám hiểm</title>
</svg>